{
  "accessors": [
    {
      "bufferView": 1,
      "componentType": 5126,
      "count": 13988,
      "max": [
        24.998043060302734,
        24.73188591003418,
        20.033573150634766
      ],
      "min": [
        -24.997480392456055,
        -24.73457145690918,
        -25
      ],
      "type": "VEC3"
    },
    {
      "bufferView": 1,
      "byteOffset": 167856,
      "componentType": 5126,
      "count": 13988,
      "max": [
        1,
        1,
        1
      ],
      "min": [
        -0.99989932775497437,
        -1,
        -1
      ],
      "type": "VEC3"
    },
    {
      "bufferView": 2,
      "componentType": 5126,
      "count": 13988,
      "max": [
        0.61176472902297974,
        0.12941177189350128,
        0.12941177189350128,
        1
      ],
      "min": [
        0.61176472902297974,
        0.12941177189350128,
        0.12941177189350128,
        1
      ],
      "type": "VEC4"
    },
    {
      "bufferView": 0,
      "componentType": 5125,
      "count": 73296,
      "max": [
        13987
      ],
      "min": [
        0
      ],
      "type": "SCALAR"
    }
  ],
  "asset": {
    "extras": {
      "author": "maha.m.alhashimi (https://sketchfab.com/maha.m.alhashimi)",
      "license": "CC-BY-4.0 (http://creativecommons.org/licenses/by/4.0/)",
      "source": "https://sketchfab.com/3d-models/quaffle-9aa62e7c51f843d0aae69efdcac8ae9b",
      "title": "Quaffle"
    },
    "generator": "Sketchfab-8.56.0",
    "version": "2.0"
  },
  "bufferViews": [
    {
      "buffer": 0,
      "byteLength": 293184,
      "byteOffset": 0,
      "name": "floatBufferViews",
      "target": 34963
    },
    {
      "buffer": 0,
      "byteLength": 335712,
      "byteOffset": 293184,
      "byteStride": 12,
      "name": "floatBufferViews",
      "target": 34962
    },
    {
      "buffer": 0,
      "byteLength": 223808,
      "byteOffset": 628896,
      "byteStride": 16,
      "name": "floatBufferViews",
      "target": 34962
    }
  ],
  "buffers": [
    {
      "byteLength": 852704,
      "uri": "scene.bin"
    }
  ],
  "materials": [
    {
      "doubleSided": true,
      "name": "Scene_-_Root",
      "pbrMetallicRoughness": {
        "baseColorFactor": [
          1,
          1,
          1,
          1
        ],
        "metallicFactor": 0,
        "roughnessFactor": 0.59999999999999998
      }
    }
  ],
  "meshes": [
    {
      "primitives": [
        {
          "attributes": {
            "COLOR_0": 2,
            "NORMAL": 1,
            "POSITION": 0
          },
          "indices": 3,
          "material": 0,
          "mode": 4
        }
      ]
    }
  ],
  "nodes": [
    {
      "children": [
        1
      ],
      "name": "RootNode (gltf orientation matrix)",
      "rotation": [
        -0.70710678118654746,
        -0,
        -0,
        0.70710678118654757
      ]
    },
    {
      "children": [
        2
      ],
      "matrix": [
        -2.2204460492503131e-16,
        -1,
        1.6081226229577292e-16,
        0,
        1,
        -2.2204460492503131e-16,
        -1.6081226229577292e-16,
        0,
        1.6081226229577292e-16,
        1.6081226229577292e-16,
        1,
        0,
        0.0016937255859375,
        -0.001132965087890625,
        0,
        1
      ],
      "name": "RootNode (model correction matrix)"
    },
    {
      "children": [
        3
      ],
      "name": "quaffle.stl.cleaner.materialmerger.gles"
    },
    {
      "mesh": 0,
      "name": ""
    }
  ],
  "scene": 0,
  "scenes": [
    {
      "name": "OSG_Scene",
      "nodes": [
        0
      ]
    }
  ]
}

